<svg width="110" height="74" viewBox="0 0 110 74" fill="none" xmlns="http://www.w3.org/2000/svg">
<g style="mix-blend-mode:hard-light" filter="url(#filter0_f_229_2031)">
<ellipse cx="55" cy="37.7337" rx="33" ry="22.6402" fill="#8F00FF" fill-opacity="0.2"/>
</g>
<g style="mix-blend-mode:hard-light" filter="url(#filter1_f_229_2031)">
<path d="M73.6991 47.6603L73.0319 46.9755C67.3324 50.5656 61.99 52.1242 56.6061 52.2198C51.2131 52.3157 45.7453 50.9445 39.7952 48.6224C39.1396 48.3665 38.4965 48.0762 37.8688 47.7555L37.8686 47.7554L36.7951 47.2072L35.7314 46.6641L36.1091 47.7971C36.1268 47.8502 36.1522 47.8944 36.1584 47.905L36.1591 47.9064C36.1707 47.9266 36.1837 47.9476 36.197 47.9682C36.224 48.0101 36.2595 48.0616 36.3029 48.1211C36.3903 48.2407 36.5153 48.4004 36.6801 48.5905C37.0098 48.971 37.5019 49.4775 38.1737 50.032C39.4069 51.0496 41.2456 52.2284 43.7955 53.0846C43.1959 53.7998 42.6222 54.5112 42.1691 55.0818C41.8827 55.4425 41.6439 55.7475 41.4767 55.9625C41.4336 56.018 41.3952 56.0674 41.362 56.1103C37.779 56.0648 34.2478 54.9977 31.2698 53.0272C29.0474 51.4769 27.7795 48.8155 28.0172 46.1221L28.0173 46.121C28.4779 40.7605 29.7345 35.4811 31.6628 30.4507L31.6631 30.4499C33.8402 24.7404 38.892 20.5904 44.9303 19.5612C45.2158 19.5204 45.4956 19.4844 45.7727 19.4543C42.577 20.398 40.1626 21.5687 38.473 22.5718C37.4526 23.1776 36.697 23.7219 36.1935 24.1178C35.9417 24.3158 35.7529 24.4766 35.6256 24.5894C35.5619 24.6459 35.5136 24.6903 35.4805 24.7214C35.4639 24.7369 35.4511 24.7491 35.4421 24.7578L35.4314 24.7682L35.4281 24.7714L35.427 24.7724L35.4266 24.7728C35.4264 24.773 35.4263 24.7732 35.77 25.1207L35.4263 24.7732L35.9842 25.5601C47.8054 19.7957 61.6732 19.8794 73.41 25.8105L75.0647 26.6467L74.0374 25.1034C74.0075 25.0586 73.9719 25.0222 73.963 25.0131L73.9618 25.0119C73.945 24.9946 73.9256 24.9758 73.9051 24.9566C73.8637 24.9177 73.8085 24.8683 73.7404 24.8099C73.6038 24.6928 73.4086 24.5339 73.1549 24.342C72.6473 23.958 71.9017 23.4393 70.9162 22.8566C69.1106 21.789 66.4983 20.5058 63.0671 19.4438C63.2848 19.4482 63.5525 19.4582 63.8714 19.4809C70.4023 20.0992 76.0292 24.3719 78.3708 30.5341L78.3726 30.5385C80.2578 35.3565 81.4726 40.3831 81.9752 45.5351C82.2528 48.3911 80.9055 51.1338 78.5166 52.7275C75.4065 54.7465 71.8215 55.8156 68.1485 55.8571C68.1085 55.8107 68.0611 55.7554 68.0071 55.6922C67.8261 55.4804 67.5715 55.1799 67.2775 54.8255C66.814 54.2668 66.2553 53.5776 65.7336 52.8929C71.3766 51.0705 73.5752 47.8461 73.6991 47.6603ZM73.2651 25.6979C73.265 25.6979 73.2634 25.6961 73.2605 25.693C73.2608 25.6933 73.261 25.6935 73.2613 25.6938C73.264 25.6966 73.2652 25.6979 73.2651 25.6979ZM40.9436 40.1899L40.9436 40.1909C40.8511 43.2427 43.2111 45.7986 46.2342 45.8917L46.2492 45.4031L46.265 45.8916C49.1491 45.7987 51.4158 43.474 51.5545 40.6097L51.5546 40.6097L51.5549 40.6008C51.6474 37.549 49.2873 34.9931 46.2643 34.9L46.2488 34.8996L46.2334 34.9001C43.3561 34.9929 41.0365 37.3125 40.9436 40.1899ZM58.1836 40.1899L58.1835 40.1909C58.091 43.2427 60.4511 45.7986 63.4741 45.8917L63.4892 45.4031L63.5049 45.8916C66.3823 45.7989 68.7021 43.4793 68.7948 40.6018L68.7948 40.6008C68.8873 37.549 66.5273 34.9931 63.5042 34.9L63.4888 34.8996L63.4734 34.9001C60.596 34.9929 58.2764 37.3125 58.1836 40.1899Z" stroke="#CC00FF" stroke-width="0.977593"/>
</g>
<g style="mix-blend-mode:hard-light" filter="url(#filter2_f_229_2031)">
<path d="M73.8243 47.7437L72.9517 46.8483C67.2731 50.4252 61.9573 51.9743 56.6034 52.0695C51.2378 52.1648 45.7906 50.8007 39.8498 48.4823C39.1991 48.2283 38.5606 47.9401 37.9372 47.6215L37.937 47.6215L36.8635 47.0733L35.4725 46.363L35.9664 47.8447C35.9903 47.9163 36.0246 47.9741 36.0285 47.981C36.0419 48.0043 36.0564 48.0278 36.0706 48.0498C36.0995 48.0946 36.1367 48.1485 36.1815 48.2098C36.2714 48.333 36.3991 48.496 36.5664 48.689C36.9013 49.0755 37.3993 49.5879 38.078 50.148C39.2901 51.1482 41.0783 52.3001 43.5397 53.1562C42.9903 53.8153 42.4694 54.4618 42.0513 54.9883C41.7645 55.3494 41.5255 55.6549 41.358 55.8702C41.3335 55.9017 41.3105 55.9313 41.2891 55.9589C37.7607 55.8999 34.2867 54.8427 31.3543 52.9027C29.1761 51.3825 27.9342 48.7734 28.167 46.1353L28.1671 46.1338C28.6265 40.7881 29.8797 35.5225 31.8033 30.5045L31.8037 30.5035C32.6262 28.3464 33.8626 26.4139 35.4094 24.7916L36.0501 25.6953C47.8292 19.9515 61.6474 20.0349 73.3422 25.9447L75.506 27.0382L74.1626 25.0201C74.1244 24.9627 74.0796 24.9172 74.0708 24.9082L74.0696 24.907C74.0506 24.8875 74.0295 24.8671 74.0081 24.847C73.9646 24.8061 73.9076 24.7552 73.8383 24.6958C73.6991 24.5764 73.5015 24.4156 73.2456 24.222C72.7336 23.8347 71.9832 23.3128 70.9927 22.7271C69.3854 21.7767 67.1439 20.6575 64.26 19.6736C70.5618 20.4205 75.9573 24.6059 78.2303 30.5875L78.2302 30.5875L78.2325 30.5933C80.1128 35.3986 81.3242 40.4117 81.8255 45.5497C82.0975 48.3484 80.7777 51.0379 78.4339 52.6019C75.3678 54.592 71.8367 55.6519 68.2167 55.7058C68.1878 55.6721 68.156 55.6349 68.1215 55.5945C67.9408 55.3831 67.6867 55.0832 67.3932 54.7295C66.9683 54.2173 66.4639 53.596 65.9819 52.9697C71.5164 51.1233 73.6889 47.9467 73.8243 47.7437ZM36.87 23.4279C38.8379 21.7939 41.1706 20.5982 43.7136 19.9686C41.4832 20.77 39.7196 21.6568 38.3962 22.4425C37.7983 22.7975 37.2904 23.1317 36.87 23.4279ZM35.4266 24.7735C35.4266 24.7735 35.4267 24.7735 35.4267 24.7734C35.4922 24.8398 35.5983 24.9471 35.77 25.1207L35.4266 24.7735ZM40.7933 40.1851L40.7932 40.1863C40.6983 43.3191 43.1214 45.9463 46.2295 46.042L46.2492 45.4031L46.2698 46.042C49.2353 45.9464 51.5624 43.5565 51.7047 40.6169L51.7048 40.6169L51.7052 40.6054C51.8002 37.4727 49.377 34.8454 46.2689 34.7497L46.2487 34.7491L46.2286 34.7498C43.272 34.8452 40.8887 37.2284 40.7933 40.1851ZM58.0332 40.1851L58.0332 40.1863C57.9382 43.3191 60.3614 45.9463 63.4695 46.042L63.4892 45.4031L63.5098 46.042C66.4664 45.9467 68.8498 43.5634 68.9451 40.6066L68.9452 40.6054C69.0401 37.4727 66.617 34.8454 63.5088 34.7497L63.4887 34.7491L63.4686 34.7498C60.5119 34.8452 58.1287 37.2284 58.0332 40.1851Z" stroke="#CC00FF" stroke-width="1.27839"/>
</g>
<g style="mix-blend-mode:hard-light" filter="url(#filter3_ddi_229_2031)">
<path d="M73.6991 47.6603L73.0319 46.9755C67.3324 50.5656 61.99 52.1242 56.6061 52.2198C51.2131 52.3157 45.7453 50.9445 39.7952 48.6224C39.1396 48.3665 38.4965 48.0762 37.8688 47.7555L37.8686 47.7554L36.7951 47.2072L35.7314 46.6641L36.1091 47.7971C36.1268 47.8502 36.1522 47.8944 36.1584 47.905L36.1591 47.9064C36.1707 47.9266 36.1837 47.9476 36.197 47.9682C36.224 48.0101 36.2595 48.0616 36.3029 48.1211C36.3903 48.2407 36.5153 48.4004 36.6801 48.5905C37.0098 48.971 37.5019 49.4775 38.1737 50.032C39.4069 51.0496 41.2456 52.2284 43.7955 53.0846C43.1959 53.7998 42.6222 54.5112 42.1691 55.0818C41.8827 55.4425 41.6439 55.7475 41.4767 55.9625C41.4336 56.018 41.3952 56.0674 41.362 56.1103C37.779 56.0648 34.2478 54.9977 31.2698 53.0272C29.0474 51.4769 27.7795 48.8155 28.0172 46.1221L28.0173 46.121C28.4779 40.7605 29.7345 35.4811 31.6628 30.4507L31.6631 30.4499C33.8402 24.7404 38.892 20.5904 44.9303 19.5612C45.2158 19.5204 45.4956 19.4844 45.7727 19.4543C42.577 20.398 40.1626 21.5687 38.473 22.5718C37.4526 23.1776 36.697 23.7219 36.1935 24.1178C35.9417 24.3158 35.7529 24.4766 35.6256 24.5894C35.5619 24.6459 35.5136 24.6903 35.4805 24.7214C35.4639 24.7369 35.4511 24.7491 35.4421 24.7578L35.4314 24.7682L35.4281 24.7714L35.427 24.7724L35.4266 24.7728C35.4264 24.773 35.4263 24.7732 35.77 25.1207L35.4263 24.7732L35.9842 25.5601C47.8054 19.7957 61.6732 19.8794 73.41 25.8105L75.0647 26.6467L74.0374 25.1034C74.0075 25.0586 73.9719 25.0222 73.963 25.0131L73.9618 25.0119C73.945 24.9946 73.9256 24.9758 73.9051 24.9566C73.8637 24.9177 73.8085 24.8683 73.7404 24.8099C73.6038 24.6928 73.4086 24.5339 73.1549 24.342C72.6473 23.958 71.9017 23.4393 70.9162 22.8566C69.1106 21.789 66.4983 20.5058 63.0671 19.4438C63.2848 19.4482 63.5525 19.4582 63.8714 19.4809C70.4023 20.0992 76.0292 24.3719 78.3708 30.5341L78.3726 30.5385C80.2578 35.3565 81.4726 40.3831 81.9752 45.5351C82.2528 48.3911 80.9055 51.1338 78.5166 52.7275C75.4065 54.7465 71.8215 55.8156 68.1485 55.8571C68.1085 55.8107 68.0611 55.7554 68.0071 55.6922C67.8261 55.4804 67.5715 55.1799 67.2775 54.8255C66.814 54.2668 66.2553 53.5776 65.7336 52.8929C71.3766 51.0705 73.5752 47.8461 73.6991 47.6603ZM73.2651 25.6979C73.265 25.6979 73.2634 25.6961 73.2605 25.693C73.2608 25.6933 73.261 25.6935 73.2613 25.6938C73.264 25.6966 73.2652 25.6979 73.2651 25.6979ZM40.9436 40.1899L40.9436 40.1909C40.8511 43.2427 43.2111 45.7986 46.2342 45.8917L46.2492 45.4031L46.265 45.8916C49.1491 45.7987 51.4158 43.474 51.5545 40.6097L51.5546 40.6097L51.5549 40.6008C51.6474 37.549 49.2873 34.9931 46.2643 34.9L46.2488 34.8996L46.2334 34.9001C43.3561 34.9929 41.0365 37.3125 40.9436 40.1899ZM58.1836 40.1899L58.1835 40.1909C58.091 43.2427 60.4511 45.7986 63.4741 45.8917L63.4892 45.4031L63.5049 45.8916C66.3823 45.7989 68.7021 43.4793 68.7948 40.6018L68.7948 40.6008C68.8873 37.549 66.5273 34.9931 63.5042 34.9L63.4888 34.8996L63.4734 34.9001C60.596 34.9929 58.2764 37.3125 58.1836 40.1899Z" stroke="#6100FF" stroke-opacity="0.2" stroke-width="0.977593"/>
</g>
<g filter="url(#filter4_f_229_2031)">
<path d="M73.5427 47.556L73.1321 47.1346C67.4065 50.7412 62.031 52.3115 56.6094 52.4078C51.1823 52.5043 45.6887 51.1242 39.7268 48.7975C39.0652 48.5393 38.4164 48.2464 37.7832 47.9229L37.7831 47.9228L36.7096 47.3746L36.055 47.0404L36.2874 47.7377C36.299 47.7723 36.3162 47.8024 36.3218 47.8122L36.3223 47.8131C36.3317 47.8294 36.3428 47.8475 36.355 47.8663C36.3796 47.9044 36.4129 47.9529 36.4548 48.0103C36.5388 48.1254 36.6606 48.281 36.8222 48.4674C37.1454 48.8405 37.6301 49.3396 38.2934 49.887C39.5524 50.9259 41.4551 52.1387 44.1185 52.9928C43.4565 53.7763 42.8138 54.5722 42.3163 55.1987C42.0303 55.5588 41.792 55.8634 41.6251 56.0779C41.5546 56.1686 41.4968 56.2433 41.4535 56.2993C37.8023 56.2709 34.1993 55.1916 31.1642 53.1827C28.8864 51.5949 27.5861 48.8682 27.8299 46.1056L27.83 46.1049C28.2922 40.7258 29.553 35.4292 31.4873 30.3834L31.4875 30.3829C33.6886 24.6103 38.7963 20.4151 44.9013 19.3754C45.7372 19.2561 46.5285 19.1757 47.3505 19.1683L47.3904 19.2082C43.422 20.2018 40.5108 21.5806 38.569 22.7335C37.5561 23.3348 36.8072 23.8745 36.3096 24.2656C36.0609 24.4612 35.875 24.6197 35.7503 24.7301C35.6879 24.7854 35.6409 24.8286 35.609 24.8585C35.5931 24.8735 35.5809 24.8851 35.5725 24.8932L35.5627 24.9027L35.5599 24.9055L35.559 24.9063L35.5587 24.9066C35.5586 24.9067 35.5585 24.9068 35.77 25.1207L35.5585 24.9068L35.9018 25.3911C47.7757 19.601 61.7053 19.685 73.4948 25.6427L74.5131 26.1573L73.8809 25.2076C73.8612 25.1781 73.8366 25.1528 73.828 25.1439L73.8271 25.1431C73.8129 25.1284 73.7957 25.1118 73.7765 25.0937C73.7376 25.0572 73.6847 25.0098 73.6181 24.9527C73.4846 24.8383 73.2925 24.6817 73.0415 24.4919C72.5394 24.1121 71.7997 23.5974 70.8205 23.0184C68.9449 21.9094 66.1895 20.5641 62.5405 19.4806L62.7686 19.2524C63.0232 19.2532 63.3952 19.2585 63.887 19.2936C70.49 19.9178 76.1792 24.2374 78.5466 30.4673L78.5477 30.47C80.4391 35.3038 81.658 40.3474 82.1623 45.5169C82.4469 48.4444 81.0654 51.2535 78.6204 52.8843C75.455 54.9395 71.8024 56.0201 68.063 56.0459C68.0142 55.9894 67.9469 55.9111 67.8642 55.8143C67.6827 55.602 67.4275 55.3007 67.1328 54.9455C66.6206 54.3282 65.9913 53.5504 65.423 52.794C71.2026 51.004 73.4335 47.7197 73.5427 47.556ZM73.4008 25.5678C73.4011 25.5681 73.4002 25.5672 73.3986 25.5654C73.4 25.5668 73.4007 25.5676 73.4008 25.5678ZM41.1315 40.196L41.1315 40.1966C41.042 43.1473 43.3232 45.614 46.24 45.7038L46.2492 45.4031L46.2589 45.7037C49.0414 45.6141 51.2326 43.3709 51.3667 40.6006L51.3668 40.6006L51.3669 40.5951C51.4564 37.6444 49.1752 35.1777 46.2585 35.088L46.249 35.0877L46.2395 35.088C43.4612 35.1776 41.2212 37.4177 41.1315 40.196ZM58.3715 40.196L58.3714 40.1966C58.282 43.1473 60.5632 45.614 63.4799 45.7038L63.4892 45.4031L63.4989 45.7037C66.2772 45.6142 68.5174 43.3742 68.6069 40.5957L68.6069 40.5951C68.6964 37.6444 66.4152 35.1777 63.4984 35.088L63.489 35.0877L63.4795 35.088C60.7012 35.1776 58.4611 37.4177 58.3715 40.196Z" stroke="#C882FF" stroke-width="0.601596"/>
</g>
<g filter="url(#filter5_f_229_2031)">
<path d="M73.4176 47.4726L73.2123 47.2619C67.4657 50.8816 62.0638 52.4613 56.6121 52.5582C51.1577 52.6551 45.6434 51.2679 39.6721 48.9376C39.0056 48.6775 38.3522 48.3825 37.7148 48.0568L37.7148 48.0568L36.6412 47.5086L36.3139 47.3415L36.4301 47.6901C36.4367 47.71 36.4475 47.729 36.4529 47.7384C36.4605 47.7517 36.4701 47.7673 36.4814 47.7848C36.504 47.8199 36.5356 47.866 36.5763 47.9216C36.6576 48.0331 36.7768 48.1854 36.9358 48.3689C37.2539 48.736 37.7326 49.2292 38.3891 49.771C39.6685 50.8267 41.623 52.0668 44.3797 52.9173C43.6681 53.7537 42.9677 54.6203 42.4341 55.2923C42.1485 55.6519 41.9105 55.956 41.7438 56.1703C41.6605 56.2774 41.595 56.3621 41.5504 56.42L41.5272 56.4501C37.8212 56.4358 34.1606 55.3468 31.0797 53.3072C28.7577 51.6893 27.4314 48.9103 27.6801 46.0923L27.6801 46.092C28.1436 40.6981 29.4078 35.3878 31.3468 30.3296L31.3469 30.3293C33.5673 24.5063 38.7198 20.2748 44.878 19.2268C45.7398 19.1038 46.5579 19.0213 47.4124 19.0175L47.6853 19.2904C43.5996 20.2843 40.6178 21.692 38.6458 22.8628C37.6389 23.4606 36.8953 23.9965 36.4026 24.3839C36.1562 24.5775 35.9726 24.7341 35.85 24.8427C35.7888 24.897 35.7428 24.9393 35.7119 24.9683C35.6964 24.9828 35.6847 24.9939 35.6768 25.0015L35.6677 25.0104L35.6653 25.0128L35.6646 25.0134L35.6643 25.0137C35.6643 25.0137 35.6642 25.0138 35.77 25.1207L35.6642 25.0138L35.8359 25.2559C47.752 19.4453 61.7311 19.5295 73.5627 25.5085L74.0718 25.7658L73.7557 25.2909C73.7442 25.2736 73.7282 25.257 73.7193 25.2479C73.7072 25.2355 73.6918 25.2205 73.6735 25.2033C73.6367 25.1688 73.5856 25.1229 73.5202 25.0669C73.3893 24.9546 73.1995 24.8 72.9508 24.6119C72.4531 24.2355 71.7182 23.7239 70.744 23.1478C68.8368 22.0202 66.012 20.6451 62.2549 19.5534L62.7065 19.1019C62.9628 19.1021 63.3599 19.1052 63.8994 19.1437C70.5602 19.7727 76.2992 24.1298 78.6872 30.4138L78.6877 30.4152C80.5841 35.2617 81.8063 40.3188 82.312 45.5022C82.6022 48.4872 81.193 51.3497 78.7026 53.0102C75.4933 55.094 71.7868 56.1836 67.9945 56.1966L67.9629 56.1601C67.9132 56.1026 67.8408 56.0185 67.7499 55.9121C67.568 55.6992 67.3123 55.3974 67.0171 55.0416C66.4655 54.3767 65.777 53.5246 65.1744 52.7124C71.0641 50.9504 73.3205 47.6181 73.4176 47.4726ZM41.2818 40.2008L41.2818 40.2011C41.1948 43.0709 43.4129 45.4663 46.2446 45.5534L46.2492 45.4031L46.2541 45.5534C48.9552 45.4664 51.086 43.2884 51.2165 40.5933L51.2166 40.5906C51.3036 37.7208 49.0855 35.3255 46.2538 35.2383L46.2539 35.238L46.2444 35.2383C43.5453 35.3254 41.3689 37.5018 41.2818 40.2008ZM58.5218 40.2008L58.5218 40.2011C58.4348 43.0709 60.6529 45.4663 63.4846 45.5534L63.4892 45.4031L63.494 45.5534C66.1931 45.4664 68.3696 43.29 68.4566 40.5909L68.4566 40.5906C68.5436 37.7208 66.3255 35.3255 63.4938 35.2383L63.4938 35.238L63.4843 35.2383C60.7853 35.3254 58.6089 37.5018 58.5218 40.2008Z" stroke="white" stroke-width="0.300798"/>
</g>
<defs>
<filter id="filter0_f_229_2031" x="17.488" y="10.5815" width="75.0239" height="54.3045" filterUnits="userSpaceOnUse" color-interpolation-filters="sRGB">
<feFlood flood-opacity="0" result="BackgroundImageFix"/>
<feBlend mode="normal" in="SourceGraphic" in2="BackgroundImageFix" result="shape"/>
<feGaussianBlur stdDeviation="2.25598" result="effect1_foregroundBlur_229_2031"/>
</filter>
<filter id="filter1_f_229_2031" x="22.988" y="14.355" width="64.0239" height="46.7576" filterUnits="userSpaceOnUse" color-interpolation-filters="sRGB">
<feFlood flood-opacity="0" result="BackgroundImageFix"/>
<feBlend mode="normal" in="SourceGraphic" in2="BackgroundImageFix" result="shape"/>
<feGaussianBlur stdDeviation="2.25598" result="effect1_foregroundBlur_229_2031"/>
</filter>
<filter id="filter2_f_229_2031" x="25.9959" y="17.363" width="58.008" height="40.7416" filterUnits="userSpaceOnUse" color-interpolation-filters="sRGB">
<feFlood flood-opacity="0" result="BackgroundImageFix"/>
<feBlend mode="normal" in="SourceGraphic" in2="BackgroundImageFix" result="shape"/>
<feGaussianBlur stdDeviation="0.751995" result="effect1_foregroundBlur_229_2031"/>
</filter>
<filter id="filter3_ddi_229_2031" x="25.5448" y="18.4157" width="58.9104" height="41.644" filterUnits="userSpaceOnUse" color-interpolation-filters="sRGB">
<feFlood flood-opacity="0" result="BackgroundImageFix"/>
<feColorMatrix in="SourceAlpha" type="matrix" values="0 0 0 0 0 0 0 0 0 0 0 0 0 0 0 0 0 0 127 0" result="hardAlpha"/>
<feOffset dy="0.977593"/>
<feGaussianBlur stdDeviation="0.375997"/>
<feColorMatrix type="matrix" values="0 0 0 0 0.055 0 0 0 0 0 0 0 0 0 0.082 0 0 0 0.7 0"/>
<feBlend mode="multiply" in2="BackgroundImageFix" result="effect1_dropShadow_229_2031"/>
<feColorMatrix in="SourceAlpha" type="matrix" values="0 0 0 0 0 0 0 0 0 0 0 0 0 0 0 0 0 0 127 0" result="hardAlpha"/>
<feOffset dy="1.50399"/>
<feGaussianBlur stdDeviation="0.977593"/>
<feColorMatrix type="matrix" values="0 0 0 0 0.514 0 0 0 0 0 0 0 0 0 0.756 0 0 0 1 0"/>
<feBlend mode="color-dodge" in2="effect1_dropShadow_229_2031" result="effect2_dropShadow_229_2031"/>
<feBlend mode="normal" in="SourceGraphic" in2="effect2_dropShadow_229_2031" result="shape"/>
<feColorMatrix in="SourceAlpha" type="matrix" values="0 0 0 0 0 0 0 0 0 0 0 0 0 0 0 0 0 0 127 0" result="hardAlpha"/>
<feOffset dx="-0.0977593" dy="0.195519"/>
<feGaussianBlur stdDeviation="0.0488797"/>
<feComposite in2="hardAlpha" operator="arithmetic" k2="-1" k3="1"/>
<feColorMatrix type="matrix" values="0 0 0 0 1 0 0 0 0 1 0 0 0 0 1 0 0 0 0.5 0"/>
<feBlend mode="normal" in2="shape" result="effect3_innerShadow_229_2031"/>
</filter>
<filter id="filter4_f_229_2031" x="27.3495" y="18.7165" width="55.3008" height="38.0344" filterUnits="userSpaceOnUse" color-interpolation-filters="sRGB">
<feFlood flood-opacity="0" result="BackgroundImageFix"/>
<feBlend mode="normal" in="SourceGraphic" in2="BackgroundImageFix" result="shape"/>
<feGaussianBlur stdDeviation="0.0751995" result="effect1_foregroundBlur_229_2031"/>
</filter>
<filter id="filter5_f_229_2031" x="27.3997" y="18.7667" width="55.2005" height="37.9342" filterUnits="userSpaceOnUse" color-interpolation-filters="sRGB">
<feFlood flood-opacity="0" result="BackgroundImageFix"/>
<feBlend mode="normal" in="SourceGraphic" in2="BackgroundImageFix" result="shape"/>
<feGaussianBlur stdDeviation="0.050133" result="effect1_foregroundBlur_229_2031"/>
</filter>
</defs>
</svg>
