<svg width="22" height="16" viewBox="0 0 22 16" fill="none" xmlns="http://www.w3.org/2000/svg">
<path d="M1.24589 0.414322C0.962681 0.420525 0.693159 0.537462 0.495055 0.739952C0.296951 0.942442 0.186019 1.21439 0.186019 1.49767C0.186019 1.78095 0.296951 2.05303 0.495055 2.25552C0.693159 2.45801 0.962681 2.57482 1.24589 2.58102H20.7522C20.8965 2.58418 21.0399 2.55857 21.1741 2.50555C21.3083 2.45253 21.4306 2.37317 21.5338 2.27226C21.6369 2.17135 21.7188 2.0509 21.7748 1.91789C21.8307 1.78488 21.8596 1.64197 21.8596 1.49767C21.8596 1.35337 21.8307 1.21059 21.7748 1.07758C21.7188 0.944568 21.6369 0.823993 21.5338 0.723083C21.4306 0.622173 21.3083 0.542942 21.1741 0.489919C21.0399 0.436896 20.8965 0.411162 20.7522 0.414322H1.24589ZM1.24589 6.9143C0.95829 6.9143 0.682468 7.02856 0.479102 7.23193C0.275737 7.43529 0.161488 7.71117 0.161488 7.99877C0.161488 8.28637 0.275737 8.56225 0.479102 8.76561C0.682468 8.96898 0.95829 9.08312 1.24589 9.08312H20.7522C21.0398 9.08312 21.3157 8.96898 21.519 8.76561C21.7224 8.56225 21.8366 8.28637 21.8366 7.99877C21.8366 7.71117 21.7224 7.43529 21.519 7.23193C21.3157 7.02856 21.0398 6.9143 20.7522 6.9143H1.24589ZM1.14221 13.4165C0.855339 13.4313 0.586 13.5591 0.393193 13.772C0.200386 13.9849 0.0998278 14.2656 0.113544 14.5525C0.127261 14.8394 0.254134 15.1093 0.466374 15.3028C0.678614 15.4964 0.958919 15.5979 1.24589 15.5852H20.7522C21.0392 15.5842 21.314 15.4696 21.5165 15.2663C21.719 15.0631 21.8327 14.7878 21.8327 14.5009C21.8327 14.2139 21.719 13.9388 21.5165 13.7355C21.314 13.5323 21.0392 13.4175 20.7522 13.4165H1.24589C1.21135 13.4149 1.17675 13.4149 1.14221 13.4165Z" fill="white"/>
</svg>
