<svg width="110" height="74" viewBox="0 0 110 74" fill="none" xmlns="http://www.w3.org/2000/svg">
<g style="mix-blend-mode:hard-light" filter="url(#filter0_f_229_2048)">
<ellipse cx="54.9996" cy="37.2" rx="29.9997" ry="25.9199" fill="#8F00FF" fill-opacity="0.2"/>
</g>
<g style="mix-blend-mode:hard-light" filter="url(#filter1_f_229_2048)">
<path d="M68.2645 57.8901L50.6 44.37C54.5826 40.7896 71.6628 25.4323 72.457 24.6919L72.4573 24.6916C72.8173 24.3556 73.0856 24.0058 73.2162 23.6557C73.3475 23.3038 73.3708 22.8231 73.0041 22.4735C72.6807 22.165 72.2339 22.1445 71.8898 22.199C71.5195 22.2576 71.1099 22.4227 70.6875 22.6792L70.6874 22.6791L70.6767 22.6859L42.6975 40.4541L32.0984 36.8859L32.0936 36.8841C32.0855 36.881 32.0717 36.8757 32.0531 36.8681C32.0157 36.8529 31.9593 36.8288 31.8898 36.7957C31.7495 36.7289 31.5632 36.6289 31.3755 36.4961C30.9807 36.2167 30.6853 35.8695 30.6354 35.4679L30.6353 35.4674C30.6 35.1852 30.7977 34.87 31.2712 34.5457C31.4839 34.4001 31.7065 34.286 31.8794 34.2076C31.9648 34.1689 32.0356 34.14 32.0837 34.1213C32.1076 34.112 32.1257 34.1053 32.137 34.1012L32.1485 34.097L32.1489 34.0969L32.1492 34.0968L32.1495 34.0967L32.1499 34.0966L32.1502 34.0965L32.1621 34.0924L32.1752 34.0873L76.5804 16.6674L76.5922 16.6627L76.6031 16.658L76.6033 16.6579L76.6035 16.6578L76.6037 16.6577L76.6038 16.6576L76.6086 16.6556L76.6329 16.6454C76.6554 16.636 76.6899 16.622 76.7348 16.6046C76.8247 16.5698 76.9549 16.522 77.1115 16.4722C77.4302 16.3708 77.8344 16.2685 78.2223 16.2392C78.6258 16.2086 78.9143 16.2644 79.0847 16.3754C79.2025 16.4522 79.3557 16.6135 79.3676 17.0725L71.486 56.8097C71.482 56.8181 71.4774 56.8275 71.4723 56.8378C71.4445 56.894 71.4001 56.9772 71.338 57.0751C71.2122 57.2735 71.0227 57.5185 70.764 57.7254C70.509 57.9295 70.1896 58.0947 69.7897 58.1493C69.4041 58.202 68.9033 58.1572 68.2645 57.8901Z" stroke="#CC00FF" stroke-width="1.26208"/>
</g>
<g style="mix-blend-mode:hard-light" filter="url(#filter2_f_229_2048)">
<path d="M68.3623 57.7205L50.9037 44.358C55.1845 40.5095 71.8047 25.5655 72.5894 24.8339L72.5898 24.8335C72.9611 24.4869 73.2529 24.1129 73.3981 23.7236C73.5442 23.3319 73.5827 22.757 73.1381 22.333C72.75 21.9628 72.2275 21.9489 71.8594 22.0072C71.4571 22.0709 71.0236 22.2479 70.5867 22.5132L70.5796 22.5175L70.5726 22.522L42.6717 40.2405L32.1634 36.7029L32.1624 36.7026C32.1557 36.7 32.1434 36.6953 32.1263 36.6883C32.0919 36.6743 32.039 36.6517 31.9733 36.6204C31.8401 36.557 31.664 36.4624 31.4877 36.3376C31.1097 36.0701 30.868 35.7649 30.8281 35.4439L30.828 35.4433C30.8074 35.2784 30.917 35.0236 31.3809 34.706C31.5814 34.5687 31.7932 34.4599 31.9596 34.3845C32.0414 34.3474 32.1089 34.3199 32.1541 34.3023C32.1766 34.2935 32.1934 34.2873 32.2034 34.2836L32.2117 34.2806L32.2122 34.2805L32.2126 34.2804L32.2131 34.2802L32.2132 34.2801L32.2139 34.2799L32.229 34.2747L32.2461 34.268L76.6513 16.8481L76.6668 16.8421L76.6808 16.8359L76.6809 16.8358L76.6812 16.8357L76.6815 16.8356L76.6819 16.8354L76.6849 16.8341L76.7074 16.8247C76.7285 16.8159 76.7616 16.8024 76.8049 16.7857C76.8918 16.752 77.0182 16.7056 77.1704 16.6572C77.4819 16.5581 77.8701 16.4606 78.237 16.4328C78.6242 16.4035 78.8612 16.4616 78.9787 16.5381C79.0307 16.572 79.1585 16.6646 79.1729 17.0563L71.3003 56.7476C71.2997 56.7489 71.299 56.7503 71.2983 56.7516C71.2731 56.8026 71.232 56.8797 71.174 56.9712C71.056 57.1573 70.88 57.384 70.6427 57.5738C70.4102 57.7598 70.1229 57.9079 69.7635 57.9569C69.4214 58.0036 68.9629 57.9677 68.3623 57.7205Z" stroke="#CC00FF" stroke-width="1.65041"/>
</g>
<g style="mix-blend-mode:hard-light" filter="url(#filter3_ddi_229_2048)">
<path d="M68.2645 57.8901L50.6 44.37C54.5826 40.7896 71.6628 25.4323 72.457 24.6919L72.4573 24.6916C72.8173 24.3556 73.0856 24.0058 73.2162 23.6557C73.3475 23.3038 73.3708 22.8231 73.0041 22.4735C72.6807 22.165 72.2339 22.1445 71.8898 22.199C71.5195 22.2576 71.1099 22.4227 70.6875 22.6792L70.6874 22.6791L70.6767 22.6859L42.6975 40.4541L32.0984 36.8859L32.0936 36.8841C32.0855 36.881 32.0717 36.8757 32.0531 36.8681C32.0157 36.8529 31.9593 36.8288 31.8898 36.7957C31.7495 36.7289 31.5632 36.6289 31.3755 36.4961C30.9807 36.2167 30.6853 35.8695 30.6354 35.4679L30.6353 35.4674C30.6 35.1852 30.7977 34.87 31.2712 34.5457C31.4839 34.4001 31.7065 34.286 31.8794 34.2076C31.9648 34.1689 32.0356 34.14 32.0837 34.1213C32.1076 34.112 32.1257 34.1053 32.137 34.1012L32.1485 34.097L32.1489 34.0969L32.1492 34.0968L32.1495 34.0967L32.1499 34.0966L32.1502 34.0965L32.1621 34.0924L32.1752 34.0873L76.5804 16.6674L76.5922 16.6627L76.6031 16.658L76.6033 16.6579L76.6035 16.6578L76.6037 16.6577L76.6038 16.6576L76.6086 16.6556L76.6329 16.6454C76.6554 16.636 76.6899 16.622 76.7348 16.6046C76.8247 16.5698 76.9549 16.522 77.1115 16.4722C77.4302 16.3708 77.8344 16.2685 78.2223 16.2392C78.6258 16.2086 78.9143 16.2644 79.0847 16.3754C79.2025 16.4522 79.3557 16.6135 79.3676 17.0725L71.486 56.8097C71.482 56.8181 71.4774 56.8275 71.4723 56.8378C71.4445 56.894 71.4001 56.9772 71.338 57.0751C71.2122 57.2735 71.0227 57.5185 70.764 57.7254C70.509 57.9295 70.1896 58.0947 69.7897 58.1493C69.4041 58.202 68.9033 58.1572 68.2645 57.8901Z" stroke="#6100FF" stroke-opacity="0.2" stroke-width="1.26208"/>
</g>
<g filter="url(#filter4_f_229_2048)">
<path d="M68.1416 58.1017L50.2202 44.385C53.7502 41.2116 71.4839 25.2673 72.2915 24.5143L72.2917 24.5142C72.6374 24.1914 72.8765 23.8719 72.9888 23.5709C73.1015 23.2687 73.1058 22.9059 72.8366 22.6491C72.594 22.4177 72.2419 22.389 71.9277 22.4387C71.5975 22.491 71.2178 22.6411 70.8134 22.8867L70.8134 22.8866L70.8068 22.8908L42.7299 40.7211L32.0178 37.1149L32.0173 37.1147L32.0075 37.111C31.9976 37.1073 31.9821 37.1013 31.9615 37.0929C31.9204 37.0761 31.8596 37.0502 31.7855 37.0149C31.6363 36.9438 31.4372 36.8371 31.2353 36.6942C30.8195 36.4 30.457 36.0002 30.3945 35.4978L30.3945 35.4975C30.3408 35.0686 30.6486 34.678 31.1341 34.3455C31.362 34.1894 31.598 34.0687 31.7792 33.9866C31.8692 33.9458 31.9441 33.9152 31.9956 33.8952C32.0213 33.8852 32.0411 33.8778 32.054 33.8731L32.0678 33.8682L32.0704 33.8673L32.0706 33.8672L32.0707 33.8671L32.0708 33.8671L32.0785 33.8645L32.0865 33.8613L76.4918 16.4414L76.4991 16.4386L76.5059 16.4355L76.506 16.4355L76.5062 16.4354L76.5071 16.435L76.5131 16.4324L76.5399 16.4212C76.564 16.4112 76.6003 16.3964 76.6471 16.3783C76.7408 16.342 76.8757 16.2925 77.0379 16.2409C77.3656 16.1366 77.7898 16.0285 78.204 15.9972C78.6277 15.9651 78.9808 16.018 79.2172 16.1721C79.4197 16.3041 79.6029 16.5541 79.6108 17.0939L71.7184 56.8855C71.7116 56.9005 71.7021 56.9207 71.6898 56.9456C71.6588 57.0082 71.6102 57.0989 71.543 57.2051C71.4074 57.4189 71.2011 57.6866 70.9156 57.915C70.6324 58.1415 70.273 58.3283 69.8226 58.3898C69.3815 58.45 68.8277 58.3936 68.1416 58.1017Z" stroke="#C882FF" stroke-width="0.776662"/>
</g>
<g filter="url(#filter5_f_229_2048)">
<mask id="path-6-inside-1_229_2048" fill="white">
<path d="M79.9994 17.1307L72.0912 57.0018C72.0912 57.0018 70.9857 59.7664 67.9437 58.4393L49.6127 44.409C52.0765 42.1942 71.1908 25.0096 72.0267 24.2303C73.3187 23.0242 72.517 22.3065 71.015 23.2186L42.7816 41.1483L31.889 37.4813C31.889 37.4813 30.1742 36.8729 30.0092 35.5457C29.8431 34.2186 31.9447 33.4998 31.9447 33.4998L76.35 16.0799C76.35 16.0799 79.9994 14.4764 79.9994 17.1307Z"/>
</mask>
<path d="M72.0912 57.0018L72.4518 57.146L72.4651 57.1126L72.4721 57.0773L72.0912 57.0018ZM67.9437 58.4393L67.7077 58.7477L67.7452 58.7763L67.7884 58.7952L67.9437 58.4393ZM49.6127 44.409L49.3531 44.1202L49.0051 44.433L49.3767 44.7174L49.6127 44.409ZM72.0267 24.2303L72.2915 24.5143L72.2917 24.5142L72.0267 24.2303ZM71.015 23.2186L70.8134 22.8866L70.8068 22.8908L71.015 23.2186ZM42.7816 41.1483L42.6577 41.5163L42.8334 41.5754L42.9898 41.4761L42.7816 41.1483ZM31.889 37.4813L31.7592 37.8473L31.7651 37.8493L31.889 37.4813ZM30.0092 35.5457L30.3945 35.4978L30.3945 35.4975L30.0092 35.5457ZM31.9447 33.4998L32.0704 33.8673L32.0785 33.8645L32.0865 33.8613L31.9447 33.4998ZM76.35 16.0799L76.4918 16.4414L76.4991 16.4386L76.5062 16.4354L76.35 16.0799ZM79.6185 17.0551L71.7103 56.9262L72.4721 57.0773L80.3803 17.2062L79.6185 17.0551ZM72.0912 57.0018C71.7306 56.8576 71.7307 56.8574 71.7308 56.8572C71.7308 56.8572 71.7308 56.857 71.7309 56.8569C71.731 56.8568 71.731 56.8566 71.731 56.8565C71.7311 56.8563 71.7311 56.8563 71.7311 56.8564C71.731 56.8567 71.7306 56.8575 71.73 56.859C71.7287 56.862 71.7264 56.8674 71.7231 56.875C71.7163 56.8903 71.7053 56.9143 71.6898 56.9456C71.6588 57.0082 71.6102 57.0989 71.543 57.2051C71.4074 57.4189 71.2011 57.6866 70.9156 57.915C70.6324 58.1415 70.273 58.3283 69.8226 58.3898C69.3724 58.4513 68.8048 58.3913 68.099 58.0833L67.7884 58.7952C68.6036 59.1509 69.3149 59.243 69.9276 59.1593C70.54 59.0757 71.0274 58.8201 71.4008 58.5215C71.7719 58.2246 72.0321 57.884 72.1989 57.6209C72.2828 57.4886 72.3444 57.3738 72.3857 57.2904C72.4064 57.2486 72.4221 57.2146 72.433 57.19C72.4385 57.1777 72.4427 57.1677 72.4459 57.1603C72.4474 57.1566 72.4487 57.1535 72.4497 57.1511C72.4502 57.1499 72.4506 57.1489 72.4509 57.148C72.4511 57.1476 72.4513 57.1472 72.4514 57.1469C72.4515 57.1467 72.4516 57.1465 72.4516 57.1464C72.4517 57.1462 72.4518 57.146 72.0912 57.0018ZM68.1798 58.1309L49.8487 44.1006L49.3767 44.7174L67.7077 58.7477L68.1798 58.1309ZM49.8723 44.6978C52.333 42.4858 71.4522 25.2968 72.2915 24.5143L71.7619 23.9462C70.9294 24.7224 51.8201 41.9025 49.3531 44.1202L49.8723 44.6978ZM72.2917 24.5142C72.6374 24.1914 72.8765 23.8719 72.9888 23.5709C73.1015 23.2687 73.1058 22.9059 72.8366 22.6491C72.594 22.4177 72.2419 22.389 71.9277 22.4387C71.5975 22.491 71.2178 22.6411 70.8134 22.8867L71.2166 23.5505C71.5632 23.34 71.847 23.2378 72.0491 23.2058C72.2674 23.1713 72.3166 23.2264 72.3006 23.2111C72.2581 23.1706 72.3145 23.1563 72.2611 23.2994C72.2073 23.4436 72.062 23.6661 71.7617 23.9464L72.2917 24.5142ZM70.8068 22.8908L42.5734 40.8204L42.9898 41.4761L71.2232 23.5464L70.8068 22.8908ZM42.9055 40.7802L32.0129 37.1132L31.7651 37.8493L42.6577 41.5163L42.9055 40.7802ZM31.889 37.4813C32.0189 37.1153 32.019 37.1153 32.0191 37.1154C32.0191 37.1154 32.0192 37.1154 32.0193 37.1154C32.0194 37.1155 32.0195 37.1155 32.0195 37.1155C32.0196 37.1156 32.0196 37.1156 32.0195 37.1155C32.0194 37.1155 32.0188 37.1152 32.0178 37.1149C32.0159 37.1142 32.0124 37.1129 32.0075 37.111C31.9976 37.1073 31.9821 37.1013 31.9615 37.0929C31.9204 37.0761 31.8596 37.0502 31.7855 37.0149C31.6363 36.9438 31.4372 36.8371 31.2353 36.6942C30.8195 36.4 30.457 36.0002 30.3945 35.4978L29.6238 35.5936C29.7264 36.4184 30.3038 36.9864 30.7867 37.3282C31.0341 37.5033 31.274 37.6316 31.4516 37.7161C31.5408 37.7586 31.6153 37.7905 31.6686 37.8122C31.6952 37.823 31.7166 37.8314 31.732 37.8372C31.7397 37.8401 31.7459 37.8424 31.7504 37.8441C31.7527 37.8449 31.7546 37.8456 31.7561 37.8461C31.7568 37.8464 31.7574 37.8466 31.7579 37.8468C31.7582 37.8469 31.7584 37.847 31.7586 37.8471C31.7588 37.8471 31.7589 37.8471 31.7589 37.8472C31.7591 37.8472 31.7592 37.8473 31.889 37.4813ZM30.3945 35.4975C30.3408 35.0686 30.6486 34.678 31.1341 34.3455C31.362 34.1894 31.598 34.0687 31.7792 33.9866C31.8692 33.9458 31.9441 33.9152 31.9956 33.8952C32.0213 33.8852 32.0411 33.8778 32.054 33.8731C32.0604 33.8708 32.0651 33.8691 32.0678 33.8682C32.0692 33.8677 32.0701 33.8673 32.0706 33.8672C32.0708 33.8671 32.0709 33.8671 32.0708 33.8671C32.0708 33.8671 32.0708 33.8671 32.0707 33.8672C32.0707 33.8672 32.0706 33.8672 32.0706 33.8672C32.0705 33.8672 32.0704 33.8673 31.9447 33.4998C31.819 33.1324 31.8189 33.1324 31.8188 33.1325C31.8188 33.1325 31.8186 33.1325 31.8185 33.1326C31.8183 33.1326 31.8181 33.1327 31.8178 33.1328C31.8173 33.133 31.8166 33.1332 31.8158 33.1335C31.8142 33.1341 31.8121 33.1348 31.8095 33.1357C31.8044 33.1375 31.7973 33.1401 31.7883 33.1433C31.7704 33.1498 31.7453 33.1592 31.7138 33.1714C31.6511 33.1959 31.5631 33.2318 31.4586 33.2792C31.251 33.3733 30.972 33.5152 30.6953 33.7047C30.1715 34.0634 29.5115 34.6957 29.6238 35.5939L30.3945 35.4975ZM32.0865 33.8613L76.4918 16.4414L76.2082 15.7184L31.8029 33.1383L32.0865 33.8613ZM76.35 16.0799C76.5062 16.4354 76.5061 16.4355 76.506 16.4355C76.506 16.4355 76.506 16.4355 76.5059 16.4355C76.5059 16.4356 76.5059 16.4355 76.506 16.4355C76.5062 16.4354 76.5065 16.4353 76.5071 16.435C76.5083 16.4345 76.5103 16.4337 76.5131 16.4324C76.5188 16.43 76.5278 16.4262 76.5399 16.4212C76.564 16.4112 76.6003 16.3964 76.6471 16.3783C76.7408 16.342 76.8757 16.2925 77.0379 16.2409C77.3656 16.1366 77.7898 16.0285 78.204 15.9972C78.6277 15.9651 78.9808 16.018 79.2172 16.1721C79.4243 16.307 79.6111 16.5654 79.6111 17.1307H80.3877C80.3877 16.3688 80.1183 15.8323 79.6412 15.5214C79.1933 15.2295 78.634 15.1857 78.1454 15.2227C77.6472 15.2604 77.159 15.3873 76.8025 15.5008C76.6225 15.558 76.4724 15.6131 76.3665 15.6541C76.3135 15.6746 76.2714 15.6917 76.2421 15.7039C76.2274 15.71 76.2159 15.7149 76.2078 15.7183C76.2037 15.7201 76.2005 15.7215 76.1981 15.7225C76.197 15.723 76.196 15.7234 76.1953 15.7237C76.1949 15.7239 76.1946 15.724 76.1944 15.7241C76.1942 15.7242 76.1941 15.7242 76.194 15.7243C76.1939 15.7243 76.1938 15.7244 76.35 16.0799Z" fill="white" mask="url(#path-6-inside-1_229_2048)"/>
</g>
<defs>
<filter id="filter0_f_229_2048" x="19.1749" y="5.45506" width="71.6494" height="63.4898" filterUnits="userSpaceOnUse" color-interpolation-filters="sRGB">
<feFlood flood-opacity="0" result="BackgroundImageFix"/>
<feBlend mode="normal" in="SourceGraphic" in2="BackgroundImageFix" result="shape"/>
<feGaussianBlur stdDeviation="2.91248" result="effect1_foregroundBlur_229_2048"/>
</filter>
<filter id="filter1_f_229_2048" x="24.1749" y="9.77489" width="61.6495" height="54.8499" filterUnits="userSpaceOnUse" color-interpolation-filters="sRGB">
<feFlood flood-opacity="0" result="BackgroundImageFix"/>
<feBlend mode="normal" in="SourceGraphic" in2="BackgroundImageFix" result="shape"/>
<feGaussianBlur stdDeviation="2.91248" result="effect1_foregroundBlur_229_2048"/>
</filter>
<filter id="filter2_f_229_2048" x="28.0582" y="13.6582" width="53.8829" height="47.0833" filterUnits="userSpaceOnUse" color-interpolation-filters="sRGB">
<feFlood flood-opacity="0" result="BackgroundImageFix"/>
<feBlend mode="normal" in="SourceGraphic" in2="BackgroundImageFix" result="shape"/>
<feGaussianBlur stdDeviation="0.970828" result="effect1_foregroundBlur_229_2048"/>
</filter>
<filter id="filter3_ddi_229_2048" x="27.4757" y="15.0174" width="55.0479" height="48.2483" filterUnits="userSpaceOnUse" color-interpolation-filters="sRGB">
<feFlood flood-opacity="0" result="BackgroundImageFix"/>
<feColorMatrix in="SourceAlpha" type="matrix" values="0 0 0 0 0 0 0 0 0 0 0 0 0 0 0 0 0 0 127 0" result="hardAlpha"/>
<feOffset dy="1.26208"/>
<feGaussianBlur stdDeviation="0.485414"/>
<feColorMatrix type="matrix" values="0 0 0 0 0.055 0 0 0 0 0 0 0 0 0 0.082 0 0 0 0.7 0"/>
<feBlend mode="multiply" in2="BackgroundImageFix" result="effect1_dropShadow_229_2048"/>
<feColorMatrix in="SourceAlpha" type="matrix" values="0 0 0 0 0 0 0 0 0 0 0 0 0 0 0 0 0 0 127 0" result="hardAlpha"/>
<feOffset dy="1.94166"/>
<feGaussianBlur stdDeviation="1.26208"/>
<feColorMatrix type="matrix" values="0 0 0 0 0.514 0 0 0 0 0 0 0 0 0 0.756 0 0 0 1 0"/>
<feBlend mode="color-dodge" in2="effect1_dropShadow_229_2048" result="effect2_dropShadow_229_2048"/>
<feBlend mode="normal" in="SourceGraphic" in2="effect2_dropShadow_229_2048" result="shape"/>
<feColorMatrix in="SourceAlpha" type="matrix" values="0 0 0 0 0 0 0 0 0 0 0 0 0 0 0 0 0 0 127 0" result="hardAlpha"/>
<feOffset dx="-0.126208" dy="0.252415"/>
<feGaussianBlur stdDeviation="0.0631038"/>
<feComposite in2="hardAlpha" operator="arithmetic" k2="-1" k3="1"/>
<feColorMatrix type="matrix" values="0 0 0 0 1 0 0 0 0 1 0 0 0 0 1 0 0 0 0.5 0"/>
<feBlend mode="normal" in2="shape" result="effect3_innerShadow_229_2048"/>
</filter>
<filter id="filter4_f_229_2048" x="29.8057" y="15.4057" width="50.3879" height="43.5883" filterUnits="userSpaceOnUse" color-interpolation-filters="sRGB">
<feFlood flood-opacity="0" result="BackgroundImageFix"/>
<feBlend mode="normal" in="SourceGraphic" in2="BackgroundImageFix" result="shape"/>
<feGaussianBlur stdDeviation="0.0970828" result="effect1_foregroundBlur_229_2048"/>
</filter>
<filter id="filter5_f_229_2048" x="29.8704" y="15.4704" width="50.2585" height="43.4588" filterUnits="userSpaceOnUse" color-interpolation-filters="sRGB">
<feFlood flood-opacity="0" result="BackgroundImageFix"/>
<feBlend mode="normal" in="SourceGraphic" in2="BackgroundImageFix" result="shape"/>
<feGaussianBlur stdDeviation="0.0647219" result="effect1_foregroundBlur_229_2048"/>
</filter>
</defs>
</svg>
