<svg width="211" height="6" viewBox="0 0 211 6" fill="none" xmlns="http://www.w3.org/2000/svg">
<path opacity="0.3" d="M140.173 5.26621C140.173 5.26621 132.812 5.27251 130.2 5.26621L53.2967 5.35361C50.3397 5.34992 42.9815 5.26672 42.9815 5.26672L30.4817 5.35361L22.9816 5.35522C18.4814 5.35362 11.4814 5.35591 11.4814 5.35591L3.49991 5.35622L3.23328 0.686111L46.9814 0.684914C46.9814 0.684914 52.0748 0.690814 53.3064 0.684914L130.209 0.597412C133.811 0.598812 142.981 0.597511 142.981 0.597511H209.604V5.26621H175.982H149.482H140.173Z" fill="#6EE8FC"/>
<path d="M137.669 3.39793C137.669 3.39793 132.472 3.40183 130.196 3.39793L53.2935 3.48532C50.9865 3.48782 46.9816 3.48532 46.9816 3.48532L40.4815 3.48553L1.77483 3.48532L1.5 2.50002L40.4816 2.54882H48.4816C48.4816 2.54882 51.3339 2.54882 53.2962 2.54882L130.199 2.46152C134.46 2.46402 141.981 2.46143 141.981 2.46143L211 2.5V3.39793H143.981H137.669Z" fill="#6EE8FC"/>
<path d="M6.27974 3.92611C5.69974 2.92611 6.04974 1.6361 7.06976 1.0461C8.07976 0.456104 9.37976 0.796103 9.95976 1.7961C10.5398 2.7961 10.1898 4.08611 9.16976 4.67611C8.14976 5.26611 6.85974 4.92611 6.27974 3.92611Z" fill="white"/>
<path d="M15.2797 3.92611C14.6997 2.92611 15.0497 1.6361 16.0697 1.0461C17.0897 0.456104 18.3797 0.796103 18.9597 1.7961C19.5397 2.7961 19.1897 4.08611 18.1697 4.67611C17.1497 5.25611 15.8597 4.92611 15.2797 3.92611Z" fill="white"/>
<path d="M24.2797 3.92611C23.6997 2.92611 24.0497 1.6361 25.0697 1.0461C26.0797 0.456104 27.3797 0.796103 27.9597 1.7961C28.5397 2.7961 28.1897 4.08611 27.1697 4.67611C26.1497 5.26611 24.8597 4.92611 24.2797 3.92611Z" fill="white"/>
<path d="M36.9528 4.069C36.3728 5.069 35.0828 5.409 34.0728 4.829C33.0528 4.249 32.7028 2.959 33.2728 1.959C33.8528 0.958998 35.1428 0.618996 36.1528 1.199C37.1728 1.779 37.5228 3.059 36.9528 4.069Z" fill="white"/>
<path d="M45.9528 4.04849C45.3728 5.04849 44.0828 5.38849 43.0728 4.80849C42.0528 4.22849 41.7028 2.93849 42.2728 1.93849C42.8528 0.93849 44.1428 0.598488 45.1528 1.17849C46.1728 1.76849 46.5228 3.04849 45.9528 4.04849Z" fill="white"/>
<path d="M54.9528 4.03628C54.3728 5.03628 53.0828 5.37629 52.0728 4.79629C51.0528 4.21629 50.7028 2.92628 51.2728 1.92628C51.8528 0.926283 53.1428 0.586281 54.1528 1.16628C55.1728 1.74628 55.5228 3.03628 54.9528 4.03628Z" fill="white"/>
<path d="M63.9528 4.02847C63.3728 5.02847 62.0828 5.36847 61.0728 4.78847C60.0528 4.20847 59.7028 2.91847 60.2728 1.91847C60.8528 0.918471 62.1428 0.578468 63.1528 1.15847C64.1728 1.73847 64.5328 3.02847 63.9528 4.02847Z" fill="white"/>
<path d="M72.9527 4.00771C72.3727 5.00771 71.0827 5.34772 70.0728 4.76772C69.0528 4.18772 68.7028 2.89771 69.2728 1.89771C69.8528 0.897713 71.1427 0.557718 72.1527 1.13772C73.1727 1.72772 73.5327 3.00771 72.9527 4.00771Z" fill="white"/>
<path d="M81.9528 3.90909C81.3728 4.90909 80.0828 5.24908 79.0728 4.66908C78.0528 4.08908 77.7028 2.79909 78.2728 1.79909C78.8528 0.799086 80.1428 0.459084 81.1528 1.03908C82.1728 1.61908 82.5328 2.90909 81.9528 3.90909Z" fill="white"/>
<path d="M99.9572 1.79909C100.537 2.79909 100.177 4.08908 99.1573 4.66908C98.1373 5.24908 96.8473 4.90909 96.2773 3.90909C95.6973 2.90909 96.0573 1.61908 97.0773 1.03908C98.0873 0.459084 99.3772 0.799086 99.9572 1.79909Z" fill="white"/>
<path d="M90.9573 1.79909C91.5373 2.79909 91.1772 4.08908 90.1572 4.66908C89.1372 5.24908 87.8473 4.90909 87.2773 3.90909C86.6973 2.90909 87.0573 1.61908 88.0773 1.03908C89.0873 0.459084 90.3773 0.799086 90.9573 1.79909Z" fill="white"/>
<path d="M108.957 1.79909C109.537 2.79909 109.177 4.08908 108.157 4.66908C107.137 5.24908 105.847 4.90909 105.277 3.90909C104.697 2.90909 105.057 1.61908 106.077 1.03908C107.097 0.459084 108.387 0.799086 108.957 1.79909Z" fill="white"/>
<path d="M117.957 1.80574C118.537 2.80574 118.177 4.09573 117.157 4.67573C116.137 5.25573 114.847 4.91584 114.277 3.91584C113.697 2.91584 114.057 1.62573 115.077 1.04573C116.087 0.455734 117.377 0.795736 117.957 1.80574Z" fill="white"/>
<path d="M126.957 1.80574C127.537 2.80574 127.177 4.09573 126.157 4.67573C125.137 5.25573 123.847 4.91584 123.277 3.91584C122.697 2.91584 123.057 1.62573 124.077 1.04573C125.087 0.455734 126.377 0.795736 126.957 1.80574Z" fill="white"/>
<path d="M135.957 1.80574C136.537 2.80574 136.177 4.09573 135.157 4.67573C134.137 5.25573 132.847 4.91584 132.277 3.91584C131.697 2.91584 132.057 1.62573 133.077 1.04573C134.087 0.455734 135.377 0.795736 135.957 1.80574Z" fill="white"/>
<path d="M144.957 1.80574C145.537 2.80574 145.177 4.09573 144.157 4.67573C143.137 5.25573 141.847 4.91584 141.277 3.91584C140.697 2.91584 141.057 1.62573 142.077 1.04573C143.087 0.455734 144.377 0.795736 144.957 1.80574Z" fill="white"/>
<path d="M153.957 1.80574C154.537 2.80574 154.177 4.09573 153.157 4.67573C152.137 5.25573 150.847 4.91584 150.277 3.91584C149.697 2.91584 150.057 1.62573 151.077 1.04573C152.087 0.455734 153.377 0.795736 153.957 1.80574Z" fill="white"/>
<path d="M162.957 1.80574C163.537 2.80574 163.177 4.09573 162.157 4.67573C161.137 5.25573 159.847 4.91584 159.277 3.91584C158.697 2.91584 159.057 1.62573 160.077 1.04573C161.087 0.455734 162.377 0.795736 162.957 1.80574Z" fill="white"/>
<path d="M171.957 1.80574C172.537 2.80574 172.177 4.09573 171.157 4.67573C170.137 5.25573 168.847 4.91584 168.277 3.91584C167.697 2.91584 168.057 1.62573 169.077 1.04573C170.087 0.455734 171.377 0.795736 171.957 1.80574Z" fill="white"/>
<path d="M180.957 1.80574C181.537 2.80574 181.177 4.09573 180.157 4.67573C179.137 5.25573 177.847 4.91584 177.277 3.91584C176.697 2.91584 177.057 1.62573 178.077 1.04573C179.087 0.455734 180.377 0.795736 180.957 1.80574Z" fill="white"/>
<path d="M189.957 1.80574C190.537 2.80574 190.177 4.09573 189.157 4.67573C188.137 5.25573 186.847 4.91584 186.277 3.91584C185.697 2.91584 186.057 1.62573 187.077 1.04573C188.087 0.455734 189.377 0.795736 189.957 1.80574Z" fill="white"/>
<path d="M198.957 1.80574C199.537 2.80574 199.177 4.09573 198.157 4.67573C197.137 5.25573 195.847 4.91584 195.277 3.91584C194.697 2.91584 195.057 1.62573 196.077 1.04573C197.087 0.455734 198.377 0.795736 198.957 1.80574Z" fill="white"/>
<path d="M207.957 1.80574C208.537 2.80574 208.177 4.09573 207.157 4.67573C206.137 5.25573 204.847 4.91584 204.277 3.91584C203.697 2.91584 204.057 1.62573 205.077 1.04573C206.087 0.455734 207.377 0.795736 207.957 1.80574Z" fill="white"/>
</svg>
