<svg width="20" height="20" viewBox="0 0 20 20" fill="none" xmlns="http://www.w3.org/2000/svg">
<path d="M1.32065 0.239052C1.10461 0.239081 0.89351 0.303705 0.714467 0.424609C0.535424 0.545513 0.396615 0.717167 0.315869 0.917552C0.235124 1.11794 0.21613 1.33793 0.261327 1.54919C0.306524 1.76046 0.413848 1.95331 0.569514 2.10311L8.466 9.99957L0.569514 17.8962C0.465289 17.9957 0.381971 18.115 0.32444 18.2472C0.266908 18.3793 0.23632 18.5215 0.234465 18.6656C0.23261 18.8097 0.259526 18.9528 0.313637 19.0863C0.367748 19.2199 0.447967 19.3414 0.549595 19.4436C0.651224 19.5458 0.77222 19.6266 0.905498 19.6815C1.03878 19.7363 1.18166 19.7642 1.32578 19.7631C1.4699 19.762 1.61236 19.7322 1.74481 19.6754C1.87727 19.6186 1.99707 19.5359 2.09718 19.4322L10 11.5336L17.8986 19.4322C17.9994 19.5333 18.1192 19.6136 18.251 19.6684C18.3829 19.7232 18.5243 19.7515 18.667 19.7516C18.8098 19.7517 18.9512 19.7237 19.0832 19.6691C19.2151 19.6145 19.335 19.5344 19.436 19.4335C19.5369 19.3325 19.617 19.2127 19.6716 19.0807C19.7262 18.9488 19.7542 18.8073 19.7541 18.6645C19.754 18.5217 19.7257 18.3804 19.6709 18.2485C19.6161 18.1167 19.5359 17.997 19.4347 17.8962L11.534 9.99957L19.4347 2.10311C19.5932 1.95098 19.7016 1.75436 19.7457 1.5392C19.7897 1.32403 19.7674 1.10048 19.6816 0.898309C19.5957 0.69614 19.4505 0.524859 19.2651 0.407115C19.0797 0.289371 18.8629 0.230769 18.6434 0.239052C18.362 0.24744 18.0948 0.365105 17.8986 0.567056L10 8.46564L2.09718 0.567056C1.99623 0.463278 1.8755 0.380727 1.74212 0.324396C1.60875 0.268065 1.46544 0.239062 1.32065 0.239052Z" fill="white"/>
</svg>
