<svg width="110" height="74" viewBox="0 0 110 74" fill="none" xmlns="http://www.w3.org/2000/svg">
<g style="mix-blend-mode:hard-light" filter="url(#filter0_f_229_2065)">
<ellipse cx="54.3042" cy="37.4226" rx="31.9825" ry="28.4536" fill="#8F00FF" fill-opacity="0.2"/>
</g>
<g style="mix-blend-mode:hard-light" filter="url(#filter1_f_229_2065)">
<path d="M70.7886 34.0784L71.1789 34.3582L71.5148 34.0149C72.443 33.0662 73.7651 32.4667 75.2116 32.4667C78.0838 32.4667 80.3966 34.7794 80.3966 37.6516C80.3966 39.7777 79.1173 41.5969 77.2965 42.4039L76.8975 42.5807L76.9716 43.0107C77.0847 43.6663 77.1694 44.2692 77.1694 44.9068C77.1694 49.1458 74.6873 53.049 70.5499 55.916C66.4149 58.7816 60.6702 60.574 54.2927 60.574C47.9269 60.574 42.188 58.7817 38.0558 55.9162C33.9212 53.049 31.439 49.1458 31.439 44.9068C31.439 44.2692 31.5237 43.6663 31.6368 43.0107L31.7109 42.5807L31.312 42.4039C29.4911 41.5969 28.2119 39.7777 28.2119 37.6516C28.2119 34.7794 30.5246 32.4667 33.3968 32.4667C34.8433 32.4667 36.1654 33.0662 37.0936 34.0149L37.4284 34.3571L37.8183 34.0795C41.7691 31.2669 47.2423 29.4203 53.3439 29.2852L53.3749 29.2845L53.3795 29.2839C53.3923 29.2831 53.4084 29.2819 53.4267 29.2794L53.8233 29.2263L53.9014 28.8338L56.6748 14.8847L56.6751 14.8829C56.7052 14.7294 56.7994 14.5909 56.9359 14.504C57.0762 14.4184 57.2381 14.3933 57.3974 14.4344C57.3975 14.4344 57.3977 14.4345 57.3979 14.4345L66.8842 16.9168L67.3623 17.0419L67.5457 16.5831C68.0877 15.2274 69.4052 14.2709 70.9485 14.2709C72.9755 14.2709 74.6188 15.9143 74.6188 17.9413C74.6188 19.9683 72.9756 21.6116 70.9485 21.6116C69.1436 21.6116 67.6484 20.304 67.3441 18.5818L67.2817 18.2284L66.9345 18.1376L58.2746 15.8723L57.6998 15.722L57.5839 16.3047L55.136 28.6163L55.0145 29.2273L55.635 29.2829C55.6408 29.2835 55.6462 29.2839 55.6512 29.2842L55.6533 29.2844L55.6572 29.2845C55.663 29.2848 55.668 29.285 55.672 29.2851C61.6396 29.5112 66.93 31.3126 70.7886 34.0784ZM45.4025 50.2064L45.4017 50.2046C45.0351 49.338 44.0484 48.9096 43.1766 49.2907C42.3132 49.6582 41.8865 50.6422 42.2657 51.5122C42.9426 53.1341 44.5785 54.4257 46.6715 55.3071C48.7823 56.196 51.4385 56.7042 54.2927 56.7042C57.1581 56.7042 59.8201 56.1961 61.9338 55.3072C64.0296 54.4259 65.6656 53.1343 66.3426 51.5124C66.722 50.6422 66.2951 49.6579 65.4313 49.2905C64.5597 48.9097 63.5732 49.3382 63.2066 50.2046L63.2059 50.2064C63.08 50.5069 62.795 50.8608 62.3122 51.2281C61.8349 51.5912 61.1941 51.9442 60.4076 52.2533C58.8352 52.8714 56.7256 53.296 54.2927 53.296C51.8597 53.296 49.7562 52.8714 48.1899 52.2536C47.4064 51.9446 46.7686 51.5917 46.2934 51.2287C45.813 50.8618 45.5287 50.5077 45.4025 50.2064ZM45.2067 37.4579C42.7688 37.4579 40.7789 39.4481 40.7789 41.8857C40.7789 44.3235 42.7689 46.3134 45.2067 46.3134C47.6443 46.3134 49.6343 44.3235 49.6343 41.8857C49.6343 39.4481 47.6443 37.4579 45.2067 37.4579ZM58.9741 41.8857C58.9741 44.3235 60.9641 46.3134 63.4017 46.3134C65.8395 46.3134 67.8295 44.3235 67.8295 41.8857C67.8295 39.4481 65.8396 37.4579 63.4017 37.4579C60.9641 37.4579 58.9741 39.4481 58.9741 41.8857Z" stroke="#CC00FF" stroke-width="1.11952"/>
</g>
<g style="mix-blend-mode:hard-light" filter="url(#filter2_f_229_2065)">
<path d="M70.6882 34.2184L71.1987 34.5843L71.6379 34.1354C72.5348 33.2186 73.813 32.6389 75.2116 32.6389C77.9887 32.6389 80.2243 34.8746 80.2243 37.6516C80.2243 39.7065 78.9881 41.4658 77.2267 42.2464L76.7049 42.4776L76.8019 43.04C76.9145 43.693 76.9971 44.2843 76.9971 44.9068C76.9971 49.0733 74.5576 52.9292 70.4518 55.7745C66.349 58.6177 60.6396 60.4018 54.2927 60.4018C47.9576 60.4018 42.2539 58.6178 38.1539 55.7746C34.0509 52.9294 31.6113 49.0734 31.6113 44.9068C31.6113 44.2843 31.6939 43.693 31.8065 43.04L31.9035 42.4776L31.3817 42.2464C29.6204 41.4658 28.3841 39.7065 28.3841 37.6516C28.3841 34.8746 30.6197 32.6389 33.3968 32.6389C34.7954 32.6389 36.0736 33.2186 36.9705 34.1354L37.4083 34.5828L37.9182 34.2198C41.8382 31.4292 47.2772 29.5918 53.3477 29.4573L53.3882 29.4565L53.3961 29.4554C53.4112 29.4544 53.4293 29.4528 53.4496 29.4501L53.9682 29.3806L54.0703 28.8673L56.8437 14.9182L56.8442 14.9159C56.8649 14.81 56.9304 14.7123 57.0271 14.6501C57.128 14.5891 57.2414 14.5721 57.3541 14.6011C57.3543 14.6011 57.3545 14.6012 57.3547 14.6012L66.8406 17.0834L67.4657 17.247L67.7056 16.647C68.2226 15.354 69.4785 14.4432 70.9485 14.4432C72.8804 14.4432 74.4466 16.0094 74.4466 17.9413C74.4466 19.8732 72.8804 21.4394 70.9485 21.4394C69.2293 21.4394 67.8038 20.1939 67.5137 18.5518L67.432 18.0898L66.9781 17.971L58.3182 15.7057L57.5665 15.5091L57.415 16.2711L54.9671 28.5827L54.8082 29.3817L55.6197 29.4545C55.6262 29.4551 55.6324 29.4555 55.6381 29.4559L55.6423 29.4563L55.6496 29.4566C55.6561 29.4569 55.6618 29.4571 55.6665 29.4572C61.6042 29.6824 66.8606 31.4748 70.6882 34.2184ZM45.5613 50.1398L45.5603 50.1375C45.1584 49.1873 44.0722 48.7116 43.1083 49.1326C42.1624 49.5358 41.689 50.6182 42.1073 51.5798C42.8093 53.2606 44.4926 54.5764 46.6046 55.4659C48.7399 56.3651 51.4195 56.8764 54.2927 56.8764C57.1771 56.8764 59.8623 56.3652 62.0005 55.466C64.1156 54.5766 65.799 53.2607 66.5011 51.5798C66.9195 50.6181 66.4459 49.5357 65.4999 49.1325C64.536 48.7116 63.45 49.1874 63.048 50.1375L63.047 50.1398C62.937 50.4025 62.677 50.7342 62.208 51.091C61.746 51.4424 61.12 51.7883 60.3446 52.093C58.7945 52.7023 56.7067 53.1237 54.2927 53.1237C51.8787 53.1237 49.797 52.7023 48.2531 52.0934C47.4808 51.7888 46.8577 51.443 46.398 51.0919C45.9313 50.7355 45.6718 50.4036 45.5613 50.1398ZM55.6864 27.9935C55.6862 27.9935 55.6866 27.9935 55.6873 27.9935H55.6868H55.6864ZM45.2067 37.2857C42.6737 37.2857 40.6067 39.353 40.6067 41.8857C40.6067 44.4186 42.6737 46.4856 45.2067 46.4856C47.7394 46.4856 49.8065 44.4186 49.8065 41.8857C49.8065 39.353 47.7394 37.2857 45.2067 37.2857ZM55.6875 29.4575C55.6878 29.4575 55.6874 29.4575 55.6866 29.4575H55.6871H55.6875ZM58.8019 41.8857C58.8019 44.4186 60.869 46.4856 63.4017 46.4856C65.9347 46.4856 68.0017 44.4186 68.0017 41.8857C68.0017 39.353 65.9347 37.2857 63.4017 37.2857C60.869 37.2857 58.8019 39.353 58.8019 41.8857Z" stroke="#CC00FF" stroke-width="1.46399"/>
</g>
<g style="mix-blend-mode:hard-light" filter="url(#filter3_ddi_229_2065)">
<path d="M70.7886 34.0784L71.1789 34.3582L71.5148 34.0149C72.443 33.0662 73.7651 32.4667 75.2116 32.4667C78.0838 32.4667 80.3966 34.7794 80.3966 37.6516C80.3966 39.7777 79.1173 41.5969 77.2965 42.4039L76.8975 42.5807L76.9716 43.0107C77.0847 43.6663 77.1694 44.2692 77.1694 44.9068C77.1694 49.1458 74.6873 53.049 70.5499 55.916C66.4149 58.7816 60.6702 60.574 54.2927 60.574C47.9269 60.574 42.188 58.7817 38.0558 55.9162C33.9212 53.049 31.439 49.1458 31.439 44.9068C31.439 44.2692 31.5237 43.6663 31.6368 43.0107L31.7109 42.5807L31.312 42.4039C29.4911 41.5969 28.2119 39.7777 28.2119 37.6516C28.2119 34.7794 30.5246 32.4667 33.3968 32.4667C34.8433 32.4667 36.1654 33.0662 37.0936 34.0149L37.4284 34.3571L37.8183 34.0795C41.7691 31.2669 47.2423 29.4203 53.3439 29.2852L53.3749 29.2845L53.3795 29.2839C53.3923 29.2831 53.4084 29.2819 53.4267 29.2794L53.8233 29.2263L53.9014 28.8338L56.6748 14.8847L56.6751 14.8829C56.7052 14.7294 56.7994 14.5909 56.9359 14.504C57.0762 14.4184 57.2381 14.3933 57.3974 14.4344C57.3975 14.4344 57.3977 14.4345 57.3979 14.4345L66.8842 16.9168L67.3623 17.0419L67.5457 16.5831C68.0877 15.2274 69.4052 14.2709 70.9485 14.2709C72.9755 14.2709 74.6188 15.9143 74.6188 17.9413C74.6188 19.9683 72.9756 21.6116 70.9485 21.6116C69.1436 21.6116 67.6484 20.304 67.3441 18.5818L67.2817 18.2284L66.9345 18.1376L58.2746 15.8723L57.6998 15.722L57.5839 16.3047L55.136 28.6163L55.0145 29.2273L55.635 29.2829C55.6408 29.2835 55.6462 29.2839 55.6512 29.2842L55.6533 29.2844L55.6572 29.2845C55.663 29.2848 55.668 29.285 55.672 29.2851C61.6396 29.5112 66.93 31.3126 70.7886 34.0784ZM45.4025 50.2064L45.4017 50.2046C45.0351 49.338 44.0484 48.9096 43.1766 49.2907C42.3132 49.6582 41.8865 50.6422 42.2657 51.5122C42.9426 53.1341 44.5785 54.4257 46.6715 55.3071C48.7823 56.196 51.4385 56.7042 54.2927 56.7042C57.1581 56.7042 59.8201 56.1961 61.9338 55.3072C64.0296 54.4259 65.6656 53.1343 66.3426 51.5124C66.722 50.6422 66.2951 49.6579 65.4313 49.2905C64.5597 48.9097 63.5732 49.3382 63.2066 50.2046L63.2059 50.2064C63.08 50.5069 62.795 50.8608 62.3122 51.2281C61.8349 51.5912 61.1941 51.9442 60.4076 52.2533C58.8352 52.8714 56.7256 53.296 54.2927 53.296C51.8597 53.296 49.7562 52.8714 48.1899 52.2536C47.4064 51.9446 46.7686 51.5917 46.2934 51.2287C45.813 50.8618 45.5287 50.5077 45.4025 50.2064ZM45.2067 37.4579C42.7688 37.4579 40.7789 39.4481 40.7789 41.8857C40.7789 44.3235 42.7689 46.3134 45.2067 46.3134C47.6443 46.3134 49.6343 44.3235 49.6343 41.8857C49.6343 39.4481 47.6443 37.4579 45.2067 37.4579ZM58.9741 41.8857C58.9741 44.3235 60.9641 46.3134 63.4017 46.3134C65.8395 46.3134 67.8295 44.3235 67.8295 41.8857C67.8295 39.4481 65.8396 37.4579 63.4017 37.4579C60.9641 37.4579 58.9741 39.4481 58.9741 41.8857Z" stroke="#6100FF" stroke-opacity="0.2" stroke-width="1.11952"/>
</g>
<g filter="url(#filter4_f_229_2065)">
<path d="M70.914 33.9034L71.1542 34.0756L71.3609 33.8643C72.3282 32.8756 73.7052 32.2514 75.2116 32.2514C78.2027 32.2514 80.6118 34.6605 80.6118 37.6516C80.6118 39.8667 79.2789 41.7608 77.3837 42.6007L77.1382 42.7095L77.1838 42.9741C77.2974 43.6329 77.3847 44.2504 77.3847 44.9068C77.3847 49.2363 74.8493 53.1986 70.6726 56.093C66.4972 58.9864 60.7085 60.7893 54.2927 60.7893C47.8885 60.7893 42.1056 58.9865 37.9331 56.0931C33.7591 53.1986 31.2237 49.2364 31.2237 44.9068C31.2237 44.2504 31.311 43.6329 31.4246 42.9741L31.4702 42.7095L31.2247 42.6007C29.3296 41.7608 27.9966 39.8667 27.9966 37.6516C27.9966 34.6605 30.4057 32.2514 33.3968 32.2514C34.9032 32.2514 36.2802 32.8756 37.2475 33.8643L37.4535 34.0749L37.6935 33.9041C41.6827 31.0641 47.1988 29.2059 53.3392 29.0699L53.3582 29.0695L53.3602 29.0692C53.3694 29.0689 53.3825 29.0681 53.3981 29.066L53.6422 29.0333L53.6902 28.7918L56.4636 14.8427L56.4639 14.8416C56.5055 14.6285 56.6357 14.4393 56.822 14.3213C57.0116 14.205 57.2341 14.1698 57.4516 14.226C57.4517 14.2261 57.4518 14.2261 57.4519 14.2261L66.9387 16.7085L67.2329 16.7855L67.3458 16.5032C67.9191 15.0692 69.3134 14.0557 70.9485 14.0557C73.0945 14.0557 74.8341 15.7954 74.8341 17.9413C74.8341 20.0872 73.0945 21.8269 70.9485 21.8269C69.0365 21.8269 67.4541 20.4417 67.1321 18.6192L67.0937 18.4018L66.88 18.3459L58.2201 16.0806L57.8664 15.9881L57.7951 16.3467L55.3472 28.6582L55.2724 29.0343L55.6543 29.0685C55.6647 29.0694 55.6732 29.0697 55.6785 29.0699L55.6786 29.0699C61.6836 29.2971 67.0166 31.1099 70.914 33.9034ZM55.6872 29.0699C55.6876 29.0699 55.6873 29.0699 55.6866 29.0699H55.6872ZM45.2039 50.2896L45.2034 50.2885C44.881 49.5263 44.0186 49.1571 43.2621 49.4883C42.5017 49.8113 42.1335 50.6722 42.4638 51.4278C43.1093 52.9761 44.6859 54.2374 46.755 55.1087C48.8352 55.9847 51.4624 56.4889 54.2927 56.4889C57.1344 56.4889 59.7672 55.9848 61.8503 55.1088C63.9224 54.2374 65.4991 52.9761 66.1446 51.4279C66.475 50.6723 66.1066 49.8113 65.3463 49.4883C64.5898 49.1571 63.7274 49.5263 63.4049 50.2885L63.4044 50.2896C63.2588 50.6373 62.9426 51.0191 62.4426 51.3994C61.9459 51.7772 61.2867 52.1391 60.4864 52.4537C58.886 53.0827 56.7494 53.5113 54.2927 53.5113C51.836 53.5113 49.7053 53.0827 48.1109 52.4539C47.3135 52.1394 46.6572 51.7775 46.1627 51.3998C45.665 51.0197 45.3498 50.6378 45.2039 50.2896ZM55.6867 28.381C55.6864 28.381 55.6866 28.381 55.6873 28.381H55.6867ZM45.2067 37.6732C42.8878 37.6732 40.9942 39.567 40.9942 41.8857C40.9942 44.2046 42.8878 46.0981 45.2067 46.0981C47.5254 46.0981 49.419 44.2046 49.419 41.8857C49.419 39.567 47.5254 37.6732 45.2067 37.6732ZM59.1894 41.8857C59.1894 44.2046 61.083 46.0981 63.4017 46.0981C65.7206 46.0981 67.6142 44.2046 67.6142 41.8857C67.6142 39.567 65.7207 37.6732 63.4017 37.6732C61.083 37.6732 59.1894 39.567 59.1894 41.8857Z" stroke="#C882FF" stroke-width="0.688938"/>
</g>
<g filter="url(#filter5_f_229_2065)">
<path d="M55.6954 28.5535C55.6951 28.5535 55.6948 28.5535 55.6945 28.5535C55.6926 28.5533 55.6909 28.5533 55.6898 28.5533L55.6917 28.5533C55.6931 28.5533 55.695 28.5534 55.6972 28.5535L55.6954 28.5535ZM55.6954 28.5535L55.6917 28.6516M55.6954 28.5535L55.6917 28.6516M55.6917 28.6516L55.6851 28.7254L55.6888 28.7262L55.6889 28.7262L55.854 28.759L55.8593 28.7324C61.8551 28.989 67.1924 30.812 71.1147 33.6234L55.6917 28.6516ZM71.0143 33.7634L71.1345 33.8495L71.2378 33.7439C72.2364 32.7232 73.6574 32.0792 75.2116 32.0792C78.2978 32.0792 80.7841 34.5654 80.7841 37.6516C80.7841 39.9378 79.4081 41.8919 77.4535 42.7582L77.3307 42.8126L77.3535 42.9449C77.4675 43.6062 77.5569 44.2353 77.5569 44.9068C77.5569 49.3088 74.979 53.3183 70.7707 56.2346C66.5631 59.1504 60.7392 60.9615 54.2927 60.9615C47.8578 60.9615 42.0397 59.1504 37.8349 56.2346C33.6295 53.3183 31.0515 49.3088 31.0515 44.9068C31.0515 44.2353 31.1409 43.6062 31.2549 42.9449L31.2777 42.8126L31.1549 42.7582C29.2003 41.8919 27.8243 39.9378 27.8243 37.6516C27.8243 34.5654 30.3106 32.0792 33.3968 32.0792C34.951 32.0792 36.372 32.7232 37.3706 33.7439L37.4736 33.8492L37.5936 33.7638C41.6137 30.9019 47.1639 29.0344 53.3354 28.8977L53.3449 28.8975L53.347 28.8972L53.3529 28.8971C53.3584 28.897 53.3661 28.8965 53.3752 28.8953L53.4973 28.879L53.5213 28.7582L56.2947 14.8091L56.2948 14.8085C56.3458 14.5477 56.5048 14.3179 56.731 14.1751C56.9599 14.0343 57.2309 13.991 57.4949 14.0593C57.495 14.0594 57.4951 14.0594 57.4951 14.0594L66.9823 16.5419L67.1294 16.5804L67.1859 16.4392C67.7842 14.9426 69.2401 13.8834 70.9485 13.8834C73.1896 13.8834 75.0063 15.7003 75.0063 17.9413C75.0063 20.1823 73.1896 21.9991 70.9485 21.9991C68.9508 21.9991 67.2986 20.5519 66.9625 18.6492L66.9433 18.5405L66.8364 18.5125L58.1765 16.2472L57.9996 16.201L57.964 16.3803L55.5161 28.6918L55.4787 28.8798L55.6697 28.897C55.671 28.8971 55.6723 28.8972 55.6735 28.8973L55.6735 28.8973L55.6744 28.8973C55.6746 28.8973 55.6748 28.8974 55.675 28.8974C55.6779 28.8975 55.6804 28.8976 55.6822 28.8977L55.6832 28.8977C61.7185 29.1257 67.0858 30.9476 71.0143 33.7634ZM45.045 50.3561L45.0448 50.3556C44.7577 49.6769 43.9945 49.355 43.3302 49.6465C42.6525 49.9339 42.3311 50.6962 42.6221 51.36C43.2424 52.8494 44.7717 54.0866 46.8219 54.95C48.8776 55.8157 51.4814 56.3166 54.2927 56.3166C57.1154 56.3166 59.7249 55.8157 61.7836 54.95C63.8366 54.0867 65.3659 52.8496 65.9862 51.3602C66.2773 50.6963 65.9559 49.9339 65.2781 49.6465C64.6138 49.355 63.8507 49.6769 63.5635 50.3556L63.5633 50.3561C63.4018 50.7417 63.0606 51.1457 62.5469 51.5365C62.0348 51.926 61.3608 52.2951 60.5494 52.614C58.9267 53.2518 56.7684 53.6835 54.2927 53.6835C51.817 53.6835 49.6645 53.2518 48.0477 52.6141C47.2392 52.2952 46.5681 51.9262 46.0582 51.5367C45.5467 51.146 45.2067 50.742 45.045 50.3561ZM45.2067 37.8454C42.9829 37.8454 41.1665 39.6621 41.1665 41.8857C41.1665 44.1095 42.9829 45.9259 45.2067 45.9259C47.4302 45.9259 49.2468 44.1094 49.2468 41.8857C49.2468 39.6621 47.4303 37.8454 45.2067 37.8454ZM59.3616 41.8857C59.3616 44.1094 61.1782 45.9259 63.4017 45.9259C65.6255 45.9259 67.442 44.1095 67.442 41.8857C67.442 39.6621 65.6255 37.8454 63.4017 37.8454C61.1782 37.8454 59.3616 39.6621 59.3616 41.8857Z" stroke="white" stroke-width="0.344469"/>
</g>
<defs>
<filter id="filter0_f_229_2065" x="17.1546" y="3.80196" width="74.2991" height="67.2413" filterUnits="userSpaceOnUse" color-interpolation-filters="sRGB">
<feFlood flood-opacity="0" result="BackgroundImageFix"/>
<feBlend mode="normal" in="SourceGraphic" in2="BackgroundImageFix" result="shape"/>
<feGaussianBlur stdDeviation="2.58352" result="effect1_foregroundBlur_229_2065"/>
</filter>
<filter id="filter1_f_229_2065" x="22.4851" y="8.54414" width="63.6383" height="57.7567" filterUnits="userSpaceOnUse" color-interpolation-filters="sRGB">
<feFlood flood-opacity="0" result="BackgroundImageFix"/>
<feBlend mode="normal" in="SourceGraphic" in2="BackgroundImageFix" result="shape"/>
<feGaussianBlur stdDeviation="2.58352" result="effect1_foregroundBlur_229_2065"/>
</filter>
<filter id="filter2_f_229_2065" x="25.9298" y="11.9888" width="56.7489" height="50.8673" filterUnits="userSpaceOnUse" color-interpolation-filters="sRGB">
<feFlood flood-opacity="0" result="BackgroundImageFix"/>
<feBlend mode="normal" in="SourceGraphic" in2="BackgroundImageFix" result="shape"/>
<feGaussianBlur stdDeviation="0.861173" result="effect1_foregroundBlur_229_2065"/>
</filter>
<filter id="filter3_ddi_229_2065" x="25.4131" y="13.1945" width="57.7823" height="51.9007" filterUnits="userSpaceOnUse" color-interpolation-filters="sRGB">
<feFlood flood-opacity="0" result="BackgroundImageFix"/>
<feColorMatrix in="SourceAlpha" type="matrix" values="0 0 0 0 0 0 0 0 0 0 0 0 0 0 0 0 0 0 127 0" result="hardAlpha"/>
<feOffset dy="1.11952"/>
<feGaussianBlur stdDeviation="0.430586"/>
<feColorMatrix type="matrix" values="0 0 0 0 0.055 0 0 0 0 0 0 0 0 0 0.082 0 0 0 0.7 0"/>
<feBlend mode="multiply" in2="BackgroundImageFix" result="effect1_dropShadow_229_2065"/>
<feColorMatrix in="SourceAlpha" type="matrix" values="0 0 0 0 0 0 0 0 0 0 0 0 0 0 0 0 0 0 127 0" result="hardAlpha"/>
<feOffset dy="1.72235"/>
<feGaussianBlur stdDeviation="1.11952"/>
<feColorMatrix type="matrix" values="0 0 0 0 0.514 0 0 0 0 0 0 0 0 0 0.756 0 0 0 1 0"/>
<feBlend mode="color-dodge" in2="effect1_dropShadow_229_2065" result="effect2_dropShadow_229_2065"/>
<feBlend mode="normal" in="SourceGraphic" in2="effect2_dropShadow_229_2065" result="shape"/>
<feColorMatrix in="SourceAlpha" type="matrix" values="0 0 0 0 0 0 0 0 0 0 0 0 0 0 0 0 0 0 127 0" result="hardAlpha"/>
<feOffset dx="-0.111952" dy="0.223905"/>
<feGaussianBlur stdDeviation="0.0559762"/>
<feComposite in2="hardAlpha" operator="arithmetic" k2="-1" k3="1"/>
<feColorMatrix type="matrix" values="0 0 0 0 1 0 0 0 0 1 0 0 0 0 1 0 0 0 0.5 0"/>
<feBlend mode="normal" in2="shape" result="effect3_innerShadow_229_2065"/>
</filter>
<filter id="filter4_f_229_2065" x="27.4799" y="13.5389" width="53.6487" height="47.7671" filterUnits="userSpaceOnUse" color-interpolation-filters="sRGB">
<feFlood flood-opacity="0" result="BackgroundImageFix"/>
<feBlend mode="normal" in="SourceGraphic" in2="BackgroundImageFix" result="shape"/>
<feGaussianBlur stdDeviation="0.0861173" result="effect1_foregroundBlur_229_2065"/>
</filter>
<filter id="filter5_f_229_2065" x="27.5373" y="13.5964" width="53.5339" height="47.6523" filterUnits="userSpaceOnUse" color-interpolation-filters="sRGB">
<feFlood flood-opacity="0" result="BackgroundImageFix"/>
<feBlend mode="normal" in="SourceGraphic" in2="BackgroundImageFix" result="shape"/>
<feGaussianBlur stdDeviation="0.0574115" result="effect1_foregroundBlur_229_2065"/>
</filter>
</defs>
</svg>
