<svg width="16" height="16" viewBox="0 0 16 16" fill="none" xmlns="http://www.w3.org/2000/svg">
<g clip-path="url(#clip0_20_428)">
<path d="M5.03263 11.0823C2.46185 8.59853 2.40027 4.49948 4.90948 1.93948C7.4187 -0.605282 11.5597 -0.650996 14.1458 1.83281L11.0978 4.92615C10.2358 4.10329 8.86573 4.11853 8.01906 4.97186C7.18779 5.82519 7.20318 7.18139 8.06524 8.01948L5.03263 11.0823Z" fill="url(#paint0_linear_20_428)"/>
<path d="M6.55661 16.0041C4.90945 16.0041 3.2777 15.3946 2 14.1755L5.03261 11.0975C5.89467 11.9203 7.26473 11.9051 8.11139 11.0517C8.94267 10.1984 8.92727 8.84222 8.06521 8.00412L11.0978 4.92603C13.6686 7.40983 13.7302 11.5089 11.221 14.0689C9.94327 15.3489 8.24994 16.0041 6.55661 16.0041Z" fill="url(#paint1_linear_20_428)"/>
</g>
<defs>
<linearGradient id="paint0_linear_20_428" x1="3.9608" y1="3.66498" x2="13.8553" y2="8.32605" gradientUnits="userSpaceOnUse">
<stop stop-color="#EB13D5"/>
<stop offset="1" stop-color="#9751F3"/>
</linearGradient>
<linearGradient id="paint1_linear_20_428" x1="2.95193" y1="8.08473" x2="12.8464" y2="12.7458" gradientUnits="userSpaceOnUse">
<stop stop-color="#EB13D5"/>
<stop offset="1" stop-color="#9751F3"/>
</linearGradient>
<clipPath id="clip0_20_428">
<rect width="16" height="16" fill="white"/>
</clipPath>
</defs>
</svg>
